<mxfile host="65bd71144e">
    <diagram id="a0IY9pOavN5R539W80ek" name="ページ1">
        <mxGraphModel dx="406" dy="991" grid="1" gridSize="10" guides="1" tooltips="1" connect="1" arrows="1" fold="1" page="1" pageScale="1" pageWidth="827" pageHeight="1169" math="1" shadow="0">
            <root>
                <mxCell id="0"/>
                <mxCell id="1" parent="0"/>
                <mxCell id="2" value="$$A$$" style="whiteSpace=wrap;html=1;" parent="1" vertex="1">
                    <mxGeometry x="40" y="40" width="60" height="60" as="geometry"/>
                </mxCell>
                <mxCell id="3" value="$$B$$" style="whiteSpace=wrap;html=1;" parent="1" vertex="1">
                    <mxGeometry x="110" y="40" width="60" height="60" as="geometry"/>
                </mxCell>
                <mxCell id="4" value="" style="edgeStyle=none;orthogonalLoop=1;jettySize=auto;html=1;" parent="1" edge="1">
                    <mxGeometry width="100" relative="1" as="geometry">
                        <mxPoint x="180" y="80" as="sourcePoint"/>
                        <mxPoint x="280" y="80" as="targetPoint"/>
                        <Array as="points"/>
                    </mxGeometry>
                </mxCell>
                <mxCell id="5" value="encoding" style="text;html=1;align=center;verticalAlign=middle;resizable=0;points=[];autosize=1;strokeColor=none;fillColor=none;strokeWidth=1;fontSize=14;" parent="1" vertex="1">
                    <mxGeometry x="188" y="53" width="80" height="30" as="geometry"/>
                </mxCell>
                <mxCell id="6" value="$$LA$$" style="whiteSpace=wrap;html=1;" parent="1" vertex="1">
                    <mxGeometry x="284" y="30" width="60" height="97" as="geometry"/>
                </mxCell>
                <mxCell id="8" value="$$BL^\top$$" style="whiteSpace=wrap;html=1;" parent="1" vertex="1">
                    <mxGeometry x="360" y="60" width="100" height="50" as="geometry"/>
                </mxCell>
                <mxCell id="9" value="" style="edgeStyle=none;orthogonalLoop=1;jettySize=auto;html=1;" parent="1" edge="1">
                    <mxGeometry width="100" relative="1" as="geometry">
                        <mxPoint x="396" y="143" as="sourcePoint"/>
                        <mxPoint x="396" y="210" as="targetPoint"/>
                        <Array as="points"/>
                    </mxGeometry>
                </mxCell>
                <mxCell id="10" value="Algorithm \(M\)" style="text;html=1;align=center;verticalAlign=middle;resizable=0;points=[];autosize=1;strokeColor=none;fillColor=none;" parent="1" vertex="1">
                    <mxGeometry x="284" y="160" width="100" height="30" as="geometry"/>
                </mxCell>
                <mxCell id="11" value="$$M(LA,BL^\top)$$" style="whiteSpace=wrap;html=1;" parent="1" vertex="1">
                    <mxGeometry x="350" y="220" width="100" height="97" as="geometry"/>
                </mxCell>
                <mxCell id="12" value="$$\approx$$" style="text;html=1;align=center;verticalAlign=middle;resizable=0;points=[];autosize=1;strokeColor=none;fillColor=none;" parent="1" vertex="1">
                    <mxGeometry x="430" y="253.5" width="90" height="30" as="geometry"/>
                </mxCell>
                <mxCell id="13" value="$$L AB L^\top$$" style="whiteSpace=wrap;html=1;" parent="1" vertex="1">
                    <mxGeometry x="500" y="220" width="100" height="97" as="geometry"/>
                </mxCell>
                <mxCell id="14" value="$$AB$$" style="whiteSpace=wrap;html=1;" parent="1" vertex="1">
                    <mxGeometry x="98" y="237.75" width="60" height="61.5" as="geometry"/>
                </mxCell>
                <mxCell id="15" value="" style="edgeStyle=none;orthogonalLoop=1;jettySize=auto;html=1;" parent="1" edge="1">
                    <mxGeometry width="100" relative="1" as="geometry">
                        <mxPoint x="330" y="269" as="sourcePoint"/>
                        <mxPoint x="248" y="269" as="targetPoint"/>
                        <Array as="points"/>
                    </mxGeometry>
                </mxCell>
                <mxCell id="18" value="list-decoding" style="text;html=1;align=center;verticalAlign=middle;resizable=0;points=[];autosize=1;strokeColor=none;fillColor=none;strokeWidth=1;fontSize=14;" parent="1" vertex="1">
                    <mxGeometry x="244" y="269.25" width="100" height="30" as="geometry"/>
                </mxCell>
                <mxCell id="19" value="list including \(AB\)" style="text;html=1;align=center;verticalAlign=middle;resizable=0;points=[];autosize=1;strokeColor=none;fillColor=none;" parent="1" vertex="1">
                    <mxGeometry x="70" y="317" width="120" height="30" as="geometry"/>
                </mxCell>
                <mxCell id="20" value="" style="whiteSpace=wrap;html=1;" parent="1" vertex="1">
                    <mxGeometry x="10" y="237.75" width="60" height="61.5" as="geometry"/>
                </mxCell>
                <mxCell id="21" value="$$\cdots$$" style="text;html=1;align=center;verticalAlign=middle;resizable=0;points=[];autosize=1;strokeColor=none;fillColor=none;" parent="1" vertex="1">
                    <mxGeometry x="45" y="253.5" width="80" height="30" as="geometry"/>
                </mxCell>
                <mxCell id="22" value="" style="whiteSpace=wrap;html=1;" parent="1" vertex="1">
                    <mxGeometry x="180" y="237.75" width="60" height="61.5" as="geometry"/>
                </mxCell>
                <mxCell id="23" value="$$\cdots$$" style="text;html=1;align=center;verticalAlign=middle;resizable=0;points=[];autosize=1;strokeColor=none;fillColor=none;" parent="1" vertex="1">
                    <mxGeometry x="131" y="254.5" width="80" height="30" as="geometry"/>
                </mxCell>
            </root>
        </mxGraphModel>
    </diagram>
</mxfile>